# xmcd
#
# Track frame offsets:
#	150
#	17572
#	32227
#	46258
#	60622
#	79004
#	95515
#	111578
#	127698
#	147024
#	162155
#	179970
#	195030
#	217165
#	231933
#	246587
#
# Disc length: 3494
#
# Revision: 2
# Processed by: cddbd v1.5.2PL0 Copyright (c) Steve Scherf et al.
# Submitted via: kJams 2 (development) 2.0patch37
#
DISCID=df0da410
DTITLE=Various Artist - Party Tyme Karaoke – Country Hits 18
DYEAR=2017
DGENRE=Karaoke
TTITLE0=Thomas Rhett - Die a Happy Man
TTITLE1=Dierks Bentley - Somewhere on a Beach
TTITLE2=Kelsea Ballerini - Dibs
TTITLE3=Cole Swindell - You Should be Here
TTITLE4=Luke Bryan - Strip it Down
TTITLE5=Chris Young - Think of You
TTITLE6=LoCash - I Love This Life
TTITLE7=Carrie Underwood - Heartbeat
TTITLE8=Tim McGraw - Humble and Kind
TTITLE9=Maren Morris - My Church
TTITLE10=Sam Hunt - Break up in a Small Town
TTITLE11=Carrie Underwood - Church Bells
TTITLE12=Chris Stapleton - Tennessee Whiskey
TTITLE13=Chris Young - I'm Comin' Over
TTITLE14=Lauren Alaina - Next Boyfriend
TTITLE15=Thomas Rhett - Crash and Burn
EXTD=
EXTT0=
EXTT1=
EXTT2=
EXTT3=
EXTT4=
EXTT5=
EXTT6=
EXTT7=
EXTT8=
EXTT9=
EXTT10=
EXTT11=
EXTT12=
EXTT13=
EXTT14=
EXTT15=
PLAYORDER=
